<?xml version="1.0" encoding="UTF-8"?>
<svg width="1200pt" height="1200pt" version="1.1" viewBox="0 0 1200 1200" xmlns="http://www.w3.org/2000/svg">
 <path d="m1088.9 880.29c47.973-82.961 75.586-178.43 75.586-280.96 0-311.11-253-563.89-564.07-564.11l-0.37109-0.48047-0.375 0.73438c-311.07 0.19922-564.07 253.36-564.07 564.48 0 102.54 27.613 197.36 75.602 280.32l-0.60156-0.28125h1.1992c97.801 173.33 279.96 281.77 488.24 281.77s390.44-108.44 488.25-281.77h1.1992zm22.254-280.29c0 81.668-19.359 158.85-53.559 227.4l-425.76-737.43c267.07 16.48 479.32 238.88 479.32 510.03zm-345.73-173.33h-330.73l165.36-286.41zm7.957 151.77c-26.664-43.066-52.973-71.773-95.68-98.441h95.68zm-346.66 149.77c13.332 45.066 56.133 85.117 101.61 98.453h-101.61zm37.785-74.883c0-74.746 60.812-135.56 135.56-135.56 74.746 0 135.56 60.812 135.56 135.56 0 74.746-60.812 135.56-135.56 135.56-74.758 0.003906-135.56-60.812-135.56-135.56zm308.88 74.895v98.441h-101.61c45.48-13.336 74.949-53.387 101.61-98.441zm-346.66-149.77v-98.453h95.691c-42.707 26.668-82.359 55.387-95.691 98.453zm-53.336 248.21h-170.41l170.41-292.5zm453.34-292.5 170.41 292.5h-170.41zm-737.77 65.828c0-271.15 212.25-493.55 479.32-510.03l-425.76 737.44c-34.199-68.547-53.559-145.75-53.559-227.41zm511.11 508.44c-177.38 0-333.87-81.773-425.56-228.44h851.12c-91.695 146.67-248.19 228.44-425.56 228.44z"/>
</svg>
