<?xml version="1.0" standalone="no"?>
<!DOCTYPE svg PUBLIC "-//W3C//DTD SVG 20010904//EN"
 "http://www.w3.org/TR/2001/REC-SVG-20010904/DTD/svg10.dtd">
<svg version="1.0" xmlns="http://www.w3.org/2000/svg"
 width="256.000000pt" height="256.000000pt" viewBox="0 0 256.000000 256.000000"
 preserveAspectRatio="xMidYMid meet">
<metadata>
Created by potrace 1.14, written by Peter Selinger 2001-2017
</metadata>
<g transform="translate(0.000000,256.000000) scale(0.100000,-0.100000)"
fill="#000000" stroke="none">
<path d="M1155 2512 c-59 -6 -208 -33 -219 -40 -6 -3 -18 -7 -26 -7 -8 0 -21
-4 -27 -8 -7 -5 -13 -5 -13 0 0 4 -4 2 -8 -4 -4 -7 -17 -14 -27 -16 -11 -2
-42 -14 -70 -27 -27 -12 -55 -24 -62 -25 -20 -5 -203 -127 -203 -136 0 -5 -5
-9 -11 -9 -13 0 -174 -161 -203 -203 -11 -16 -28 -38 -38 -49 -10 -11 -15 -25
-12 -29 3 -5 0 -9 -6 -9 -5 0 -18 -17 -28 -37 -9 -21 -20 -40 -24 -43 -4 -3
-14 -21 -22 -40 -7 -19 -22 -53 -31 -75 -22 -49 -19 -41 -46 -145 -12 -47 -24
-92 -27 -100 -12 -42 -24 -326 -13 -345 3 -5 6 -23 7 -40 1 -16 5 -42 8 -58 3
-15 8 -39 11 -55 3 -15 9 -36 12 -47 4 -11 8 -27 9 -35 2 -8 7 -23 12 -35 5
-11 24 -56 43 -100 18 -44 38 -83 43 -87 6 -4 7 -8 3 -8 -4 0 -3 -6 3 -12 6
-7 25 -35 42 -63 113 -179 303 -345 502 -439 75 -36 189 -76 214 -76 12 0 23
-4 26 -8 3 -5 18 -9 33 -10 15 -1 39 -4 53 -8 42 -11 322 -14 375 -3 28 5 57
11 65 12 8 1 20 5 25 8 6 3 20 4 33 3 12 0 22 3 22 7 0 5 7 9 16 9 54 0 264
100 374 178 61 43 195 170 248 236 94 115 210 355 227 471 2 11 4 20 5 20 2 0
4 11 6 25 1 14 6 43 11 65 8 42 10 266 2 347 -2 27 -8 48 -13 48 -4 0 -6 7 -2
15 3 8 1 27 -4 42 -4 15 -16 55 -26 88 -9 33 -22 66 -27 73 -5 6 -7 12 -4 12
16 0 -115 239 -135 248 -5 2 -8 10 -8 18 0 8 -4 14 -8 14 -4 0 -15 12 -24 28
-17 28 -96 111 -162 170 -46 42 -187 138 -215 147 -11 3 -21 11 -21 17 0 5 -7
8 -15 4 -8 -3 -15 -2 -15 3 0 7 -120 59 -153 65 -6 2 -19 6 -27 9 -89 36 -328
61 -455 49z"/>
</g>
</svg>
